{"title":"Dead Awake (2010) 480p IN250MB BRRip Dual Audio [Hindi-English] ","uid":8945955,"size":265943214,"categoryP":"video","categoryS":"hd___movies","magnet":"?xt=urn:btih:eb4dcc793bb6a615a45adb7c97f7d75a499afd80&amp;dn=Dead+Awake+%282010%29+480p+IN250MB+BRRip+Dual+Audio+%5BHindi-English%5D+&amp;tr=udp%3A%2F%2Ftracker.openbittorrent.com%3A80&amp;tr=udp%3A%2F%2Fopen.demonii.com%3A1337&amp;tr=udp%3A%2F%2Ftracker.coppersurfer.tk%3A6969&amp;tr=udp%3A%2F%2Fexodus.desync.com%3A6969","seeders":1,"leechers":0,"uploader":"jatt13","files":9,"time":1379776997,"description":"[img]http://imageshack.us/a/img802/2678/k9wp.png[/img]\n\n[img]http://imageshack.us/a/img856/479/zcuz.jpg[/img]\n\nIMDB  [url]http://www.imdb.com/title/tt1501652/[/url]\n\nDirector:Omar Naim\nWriters:Johnny Harrington (story), Johnny Harrington, \nStars:Nick Stahl, Rose McGowan, Amy Smart |\n\nVideo\nID                             : 1\nFormat                         : AVC\nFormat/Info                    : Advanced Video Codec\nFormat profile                 : &lt;a class=&quot;__cf_email__&quot; href=&quot;/cdn-cgi/l/email-protection&quot; data-cfemail=&quot;df92beb6b19f93eaf1ee&quot;&gt;[email&amp;#160;protected]&lt;/a&gt;&lt;script cf-hash='f9e31' type=&quot;text/javascript&quot;&gt;\n/* &lt;![CDATA[ */!function(){try{var t=&quot;currentScript&quot;in document?document.currentScript:function(){for(var t=document.getElementsByTagName(&quot;script&quot;),e=t.length;e--;)if(t[e].getAttribute(&quot;cf-hash&quot;))return t[e]}();if(t&amp;&amp;t.previousSibling){var e,r,n,i,c=t.previousSibling,a=c.getAttribute(&quot;data-cfemail&quot;);if(a){for(e=&quot;&quot;,r=parseInt(a.substr(0,2),16),n=2;a.length-n;n+=2)i=parseInt(a.substr(n,2),16)^r,e+=String.fromCharCode(i);e=document.createTextNode(e),c.parentNode.replaceChild(e,c)}}}catch(u){}}();/* ]]&gt; */&lt;/script&gt;\nFormat settings, CABAC         : Yes\nFormat settings, ReFrames      : 1 frame\nCodec ID                       : V_MPEG4/ISO/AVC\nDuration                       : 1h 32mn\nBit rate                       : 244 Kbps\nWidth                          : 720 pixels\nHeight                         : 480 pixels\nDisplay aspect ratio           : 3:2\nFrame rate mode                : Constant\nFrame rate                     : 25.000 fps\nStandard                       : NTSC\nColor space                    : YUV\nChroma subsampling             : 4:2:0\nBit depth                      : 8 bits\nScan type                      : Progressive\nBits/(Pixel*Frame)             : 0.028\nStream size                    : 162 MiB (64%)\nTitle                          : GOPI SAHI HD IN LOW SIZE         PDR\nLanguage                       : Panjabi\nDefault                        : Yes\nForced                         : No\n\nAudio #1\nID                             : 2\nFormat                         : MPEG Audio\nFormat version                 : Version 1\nFormat profile                 : Layer 2\nCodec ID                       : A_MPEG/L2\nCodec ID/Hint                  : MP2\nDuration                       : 1h 32mn\nBit rate mode                  : Constant\nBit rate                       : 64.0 Kbps\nChannel(s)                     : 2 channels\nSampling rate                  : 44.1 KHz\nCompression mode               : Lossy\nStream size                    : 42.5 MiB (17%)\nTitle                          : GOPI SAHI HD IN LOW SIZE         PDR\nLanguage                       : Hindi\nDefault                        : Yes\nForced                         : No\n\nAudio #2\nID                             : 3\nFormat                         : AC-3\nFormat/Info                    : Audio Coding 3\nMode extension                 : CM (complete main)\nFormat settings, Endianness    : Big\nCodec ID                       : A_AC3\nDuration                       : 1h 32mn\nBit rate mode                  : Constant\nBit rate                       : 64.0 Kbps\nChannel(s)                     : 2 channels\nChannel positions              : Front: L R\nSampling rate                  : 48.0 KHz\nBit depth                      : 16 bits\nCompression mode               : Lossy\nStream size                    : 42.5 MiB (17%)\nTitle                          : GOPI SAHI HD IN LOW SIZE         PDR\nLanguage                       : English\nDefault                        : No\nForced                         : Yes\n\n[img]http://imageshack.us/a/img96/3956/bui1.jpg[/img]\n\n[img]http://imageshack.us/a/img834/7128/o5r1.png[/img]\n\n[img]http://imageshack.us/a/img13/9572/wtcn.png[/img]\n\n[img]http://imageshack.us/a/img801/3671/r1yp.png[/img]\n\n[img]http://imageshack.us/a/img163/9779/toyn.png[/img]\n\n[img]http://imageshack.us/a/img198/8503/h6z.png[/img]\n\n[img]http://s22.postimg.org/lk5ao1vip/cooltext1123245186.png[/img]\n","torrent":{"xt":"urn:btih:eb4dcc793bb6a615a45adb7c97f7d75a499afd80","amp;dn":"Dead+Awake+%282010%29+480p+IN250MB+BRRip+Dual+Audio+%5BHindi-English%5D+","amp;tr":["udp%3A%2F%2Ftracker.openbittorrent.com%3A80","udp%3A%2F%2Fopen.demonii.com%3A1337","udp%3A%2F%2Ftracker.coppersurfer.tk%3A6969","udp%3A%2F%2Fexodus.desync.com%3A6969"],"infoHash":"eb4dcc793bb6a615a45adb7c97f7d75a499afd80","infoHashBuffer":{"type":"Buffer","data":[235,77,204,121,59,182,166,21,164,90,219,124,151,247,215,90,73,154,253,128]},"announce":[],"urlList":[]}}